<svg xmlns="http://www.w3.org/2000/svg" width="154.19" height="35" viewBox="0 0 154.19 35"><rect class="svg__rect" x="0" y="0" width="90.22999999999999" height="35" fill="#31C4F3"/><rect class="svg__rect" x="88.22999999999999" y="0" width="65.96" height="35" fill="#389AD5"/><path class="svg__text" d="M15.60 22L13.63 13.47L15.10 13.47L16.43 19.88L18.06 13.47L19.30 13.47L20.91 19.89L22.22 13.47L23.69 13.47L21.72 22L20.31 22L18.68 15.77L17.02 22L15.60 22ZM33.34 22L27.76 22L27.76 13.47L33.30 13.47L33.30 14.66L29.25 14.66L29.25 17.02L32.75 17.02L32.75 18.19L29.25 18.19L29.25 20.82L33.34 20.82L33.34 22ZM40.65 22L37.54 22L37.54 13.47L40.46 13.47Q41.91 13.47 42.66 14.05Q43.42 14.63 43.42 15.78L43.42 15.78Q43.42 16.36 43.10 16.83Q42.79 17.30 42.18 17.56L42.18 17.56Q42.87 17.75 43.25 18.26Q43.63 18.78 43.63 19.51L43.63 19.51Q43.63 20.71 42.85 21.36Q42.08 22 40.65 22L40.65 22ZM39.02 18.15L39.02 20.82L40.67 20.82Q41.36 20.82 41.76 20.47Q42.15 20.13 42.15 19.51L42.15 19.51Q42.15 18.18 40.79 18.15L40.79 18.15L39.02 18.15ZM39.02 14.66L39.02 17.06L40.47 17.06Q41.16 17.06 41.55 16.75Q41.94 16.43 41.94 15.86L41.94 15.86Q41.94 15.23 41.58 14.95Q41.22 14.66 40.46 14.66L40.46 14.66L39.02 14.66ZM49.58 22L48.10 22L48.10 13.47L49.58 13.47L49.58 17.47L50.40 16.46L52.89 13.47L54.69 13.47L51.52 17.25L54.87 22L53.11 22L50.55 18.31L49.58 19.34L49.58 22ZM59.43 22L57.89 22L61.11 13.47L62.44 13.47L65.67 22L64.12 22L63.42 20.01L60.12 20.01L59.43 22ZM61.77 15.28L60.54 18.82L63.01 18.82L61.77 15.28ZM69.49 19.16L69.49 19.16L69.49 13.47L70.97 13.47L70.97 19.18Q70.97 20.03 71.40 20.48Q71.83 20.93 72.68 20.93L72.68 20.93Q74.39 20.93 74.39 19.13L74.39 19.13L74.39 13.47L75.86 13.47L75.86 19.17Q75.86 20.53 74.99 21.32Q74.12 22.12 72.68 22.12L72.68 22.12Q71.21 22.12 70.35 21.33Q69.49 20.55 69.49 19.16Z" fill="#FFFFFF"/><path class="svg__text" d="M104.75 22L102.42 22L102.42 13.60L104.37 13.60L108.08 18.07L108.08 13.60L110.41 13.60L110.41 22L108.46 22L104.75 17.52L104.75 22ZM115.14 17.80L115.14 17.80Q115.14 16.55 115.75 15.55Q116.35 14.56 117.41 14.00Q118.48 13.43 119.81 13.43L119.81 13.43Q121.14 13.43 122.20 14.00Q123.27 14.56 123.87 15.55Q124.48 16.55 124.48 17.80L124.48 17.80Q124.48 19.05 123.87 20.04Q123.27 21.04 122.20 21.60Q121.14 22.17 119.81 22.17L119.81 22.17Q118.48 22.17 117.41 21.60Q116.35 21.04 115.75 20.04Q115.14 19.05 115.14 17.80ZM117.54 17.80L117.54 17.80Q117.54 18.51 117.84 19.05Q118.14 19.60 118.66 19.90Q119.18 20.20 119.81 20.20L119.81 20.20Q120.45 20.20 120.96 19.90Q121.48 19.60 121.78 19.05Q122.08 18.51 122.08 17.80L122.08 17.80Q122.08 17.09 121.78 16.54Q121.48 16 120.96 15.70Q120.45 15.40 119.81 15.40L119.81 15.40Q119.17 15.40 118.66 15.70Q118.14 16 117.84 16.54Q117.54 17.09 117.54 17.80ZM131.29 22L128.56 13.60L131.01 13.60L132.70 18.96L134.47 13.60L136.66 13.60L138.35 19.01L140.12 13.60L142.38 13.60L139.66 22L137.12 22L135.51 16.89L133.83 22L131.29 22Z" fill="#FFFFFF" x="101.22999999999999"/></svg>